<svg xmlns="http://www.w3.org/2000/svg" viewBox="0 0 52.67 52.67"><defs><style>.cls-1{fill:#f9f9fa;}</style></defs><title>animals</title><g id="Layer_2" data-name="Layer 2"><g id="Layer_1-2" data-name="Layer 1"><path class="cls-1" d="M26.33,0A26.33,26.33,0,1,0,52.67,26.33,26.33,26.33,0,0,0,26.33,0Zm2.13,9.85c2.38,0,4.3,2.93,4.3,6.54s-1.93,6.54-4.3,6.54-4.3-2.93-4.3-6.54S26.08,9.85,28.46,9.85ZM15.38,13.43c2-1.26,5.2.2,7.12,3.26s1.84,6.57-.18,7.83-5.2-.2-7.12-3.26S13.36,14.69,15.38,13.43ZM13.5,32.7c-2.6-1.9-3.73-4.78-2.52-6.43s4.3-1.46,6.9.44,3.73,4.78,2.52,6.43S16.1,34.6,13.5,32.7Zm25.81,5.25a3.67,3.67,0,0,1-.95,1.9c-1.37,1.49-3.82,1.75-5.53,1.42a5.4,5.4,0,0,0-1.9-.32,4.66,4.66,0,0,0-2.53,1.42c-1.08.92-3,2.24-4.9,2.05a4,4,0,0,1-3-1.9,5.43,5.43,0,0,1-.47-2.1,10.81,10.81,0,0,1,0-2.17,21.77,21.77,0,0,1,2.53-8.06c1-1.89,2-3.52,3.79-4.11a6.28,6.28,0,0,1,4.51.2s5.2,2.48,8.14,9.6A3.77,3.77,0,0,1,39.31,37.95ZM36.88,29c-2.08,0-3.77-2.6-3.77-5.8s1.69-5.8,3.77-5.8,3.77,2.6,3.77,5.8S39,29,36.88,29Z"/></g></g></svg>