<svg xmlns="http://www.w3.org/2000/svg" viewBox="0 0 53.86 53.86"><defs><style>.cls-1{fill:#f9f9fa;}</style></defs><title>artculture</title><g id="Layer_2" data-name="Layer 2"><g id="Layer_1-2" data-name="Layer 1"><path class="cls-1" d="M45.57,7.51l-4.69,8.13-7.31-4.22,5.05-8.75a27,27,0,1,0,6.95,4.84ZM30,37.63a8.31,8.31,0,0,1-3.68,2.64c-5.36,2.22-11.18,1.59-14.44,1l-1.5-.82c6.3-2.62,8.14-5.28,8.57-7.3A7.58,7.58,0,0,1,20.12,30a6.62,6.62,0,0,1,4.49-2.81,6.4,6.4,0,0,1,6.36,3C33,33.61,30.28,37.32,30,37.63ZM32.55,27a3,3,0,0,1-1.88,1,2.93,2.93,0,0,1-3-1.7,2.81,2.81,0,0,1,.12-2c.81-2.12,2.81-6.61,5.58-12.38l3.34,2,3.82,2.23Z"/></g></g></svg>