<svg xmlns="http://www.w3.org/2000/svg" viewBox="0 0 52.31 52.31"><defs><style>.cls-1{fill:#f9f9fa;}</style></defs><title>education</title><g id="Layer_2" data-name="Layer 2"><g id="Layer_1-2" data-name="Layer 1"><path class="cls-1" d="M28.58,30.8c5.57-2.63,7.54-3.21,9.66-3.46a20.35,20.35,0,0,1,5.58.13L28.82,13h0a10.45,10.45,0,0,0-4.35-1.91,12.57,12.57,0,0,0-7.1,1.1,29.74,29.74,0,0,0-4.83,2.66c-1.64,1-3,1.93-4,2.63L19.89,35.21C23.33,33.35,26.3,31.88,28.58,30.8Z"/><path class="cls-1" d="M7.5,18.59a4.05,4.05,0,0,0-.2,3.2L19,40.17l.47-4.57L8.11,17.81A3.43,3.43,0,0,0,7.5,18.59Z"/><path class="cls-1" d="M42.59,31.25a11.79,11.79,0,0,1,1.49-3.15A18.08,18.08,0,0,0,37.59,28c-2.31.41-4.14,1.26-7.79,3-1.95.91-3.59,1.75-5.25,2.61-1.81.94-3.33,1.77-4.43,2.38h0l-.49,4.77,5.86-3.13a29.34,29.34,0,0,1,16.95-5.29,2.65,2.65,0,0,1,.08-.85h0l.07-.25Z"/><path class="cls-1" d="M51,30.78a12.82,12.82,0,0,0-3,1.33h0a5.89,5.89,0,0,1-1.7,1c-1,.44-2.6,1.16-3.43.39A104.09,104.09,0,0,0,20,41.77h0l-1.3.66-.15-.4-13-21,.71-.09a4.57,4.57,0,0,1,.73-3,4.15,4.15,0,0,1,.9-.94h0a38.29,38.29,0,0,1,6-3.82c3.17-1.63,5.44-2.8,8.52-2.8a13.48,13.48,0,0,1,6.9,2A10.44,10.44,0,0,1,32,9.86c2.42-1.53,4.94-1.68,7.21-1.8,2-.11,2.24.12,5.32.07h.59a26.15,26.15,0,1,0,6.85,22.43C51.64,30.61,51.33,30.68,51,30.78Z"/><path class="cls-1" d="M49.62,23.62a11.26,11.26,0,0,1,2.47-.84,26,26,0,0,0-6.39-14l-1,0c-2.25.07-3-.12-5.2,0a18.11,18.11,0,0,0-4.68.63,11.75,11.75,0,0,0-5.18,3.45l15,14.47A13.39,13.39,0,0,1,49.62,23.62Z"/><path class="cls-1" d="M47.31,29.36c.12.09.09.13.69,1.34l.25.5h0a9.82,9.82,0,0,1,2-2,7.47,7.47,0,0,1,2-1c.05-.67.09-1.35.09-2s0-1.64-.12-2.44a10,10,0,0,0-3.84,1.58,11.13,11.13,0,0,0-3.61,4.38C45.75,29.28,46.76,28.9,47.31,29.36Z"/></g></g></svg>