<svg xmlns="http://www.w3.org/2000/svg" viewBox="0 0 52.42 52.42"><defs><style>.cls-1{fill:#f9f9fa;}</style></defs><title>environment</title><g id="Layer_2" data-name="Layer 2"><g id="Layer_1-2" data-name="Layer 1"><path class="cls-1" d="M26.21,0A26.21,26.21,0,1,0,52.42,26.21,26.21,26.21,0,0,0,26.21,0Zm13.3,29.5c-.51,2.46-.91,4.35-2.32,6.36-.75,1.07-3.51,5-7.88,4.85a8.81,8.81,0,0,1-6.06-3.13A37.84,37.84,0,0,0,30,29.4a37.84,37.84,0,0,0,4-9.09A53.5,53.5,0,0,1,26,31.22c-.58.6-1.15,1.16-1.72,1.71h0a42,42,0,0,1-3.61,3.65c-2.72,2.43-7.83,7-10.78,5.53a2.89,2.89,0,0,1-1.11-1,2,2,0,0,1,.39-1.61c.71-.69,1.9,0,3.62-.21a11.79,11.79,0,0,0,3.28-1.58C18,36.6,18.83,36,20.33,35.11a9.3,9.3,0,0,1-5.26-2.88,9.44,9.44,0,0,1-2.32-6.67c.14-3.61,2.32-6,3.94-7.78a18.88,18.88,0,0,1,7.88-5.05c1.75-.62,2.1-.47,3.94-1A24.75,24.75,0,0,0,37,7.18a44.06,44.06,0,0,1,3,13A33,33,0,0,1,39.51,29.5Z"/></g></g></svg>