<svg xmlns="http://www.w3.org/2000/svg" viewBox="0 0 52.3 52.3"><defs><style>.cls-1{fill:#f9f9fa;}</style></defs><title>international</title><g id="Layer_2" data-name="Layer 2"><g id="Layer_1-2" data-name="Layer 1"><path class="cls-1" d="M37.44,28.6h0a32.32,32.32,0,0,1-7.08-1.75c-1,2.25-1.84,3.89-3,6a42.38,42.38,0,0,0,4.75,1.43c.79.19,1.5.33,2.16.44A24.51,24.51,0,0,0,37.44,28.6Z"/><path class="cls-1" d="M38.48,21.12c0-.74-.1-1.51-.19-2.28a16.52,16.52,0,0,1-4.09-.56l-.4-.12a63.56,63.56,0,0,1-3,7.78,38.92,38.92,0,0,0,4,1.19,27.49,27.49,0,0,0,3,.57A18.91,18.91,0,0,0,38.48,21.12Z"/><path class="cls-1" d="M19,35.7a43,43,0,0,0,4.27,2,27.62,27.62,0,0,0,1.55-2.29L26,33.51a40.18,40.18,0,0,1-4.78-2.25l-.65-.38q-.41,1.13-.78,2.21C19.53,33.79,19.24,34.66,19,35.7Z"/><path class="cls-1" d="M29.55,39.74a15.19,15.19,0,0,0,3-2.82c.26-.31.61-.74,1-1.27a36.76,36.76,0,0,1-6.78-1.84A37.42,37.42,0,0,1,24,38a39.29,39.29,0,0,0,4.91,1.55Z"/><path class="cls-1" d="M25.32,12.48a28.51,28.51,0,0,0,2.84,2,10.2,10.2,0,0,1,3.58-3.31l.38-.19-.53-.1a9.63,9.63,0,0,0-6.35,1.59Z"/><path class="cls-1" d="M14.69,25.87a44.59,44.59,0,0,0,5.49,3.69c.94-2.35,1.71-4,2.86-6.33-.93-.6-1.81-1.22-2.71-1.85-1.36-1-2.17-1.58-2.68-2A26,26,0,0,0,14.69,25.87Z"/><path class="cls-1" d="M28.84,14.83l.16.09a47.55,47.55,0,0,0,4.33,2c.67-2.55.9-4.4.37-5.24a1.2,1.2,0,0,0-.57-.42C32.1,11,30.65,12.36,28.84,14.83Z"/><path class="cls-1" d="M27.47,43l.12,0a22.21,22.21,0,0,1-2.78-.49,16.54,16.54,0,0,1-5.66,0l.93.31A19,19,0,0,0,27.47,43Z"/><path class="cls-1" d="M23.87,13.24a19.2,19.2,0,0,0-5.77,5.48,40.91,40.91,0,0,0,5.34,3.75,63.71,63.71,0,0,1,4.15-7.23,27.33,27.33,0,0,1-3.17-2.33Z"/><path class="cls-1" d="M15.46,38.43a16.3,16.3,0,0,1-2.17-1.69,19.08,19.08,0,0,0,3.33,4c.46.35.81.6,1,.73A22.35,22.35,0,0,1,15.46,38.43Z"/><path class="cls-1" d="M8.5,27.58a18.06,18.06,0,0,0,.77,2.21,17.31,17.31,0,0,0,.92,1.84,14.71,14.71,0,0,1-.35-1.85A9.11,9.11,0,0,1,8.5,27.58Z"/><path class="cls-1" d="M25.77,11.12h0a15.3,15.3,0,0,1,3.42-1c-.53,0-1.07,0-1.64,0a22.36,22.36,0,0,0-4,.33,7.31,7.31,0,0,0,1,1.39C25,11.53,25.38,11.32,25.77,11.12Z"/><path class="cls-1" d="M20.89,30a46.3,46.3,0,0,0,5.65,2.63c1.08-1.82,2.18-3.78,3.22-6a37.8,37.8,0,0,1-5.14-2.42l-1-.62C22.5,25.81,21.64,27.94,20.89,30Z"/><path class="cls-1" d="M33,18l0-.09a27.37,27.37,0,0,1-4.81-2.27l-.06.08A56,56,0,0,0,24,22.78a42.89,42.89,0,0,0,6.22,2.94A56,56,0,0,0,33,18Z"/><path class="cls-1" d="M40.2,18.15c-.43-.74-.85-1.36-1.2-1.88s-.64-.91-1-1.32a15.3,15.3,0,0,1,1.08,3.29C39.45,18.22,39.82,18.19,40.2,18.15Z"/><path class="cls-1" d="M36.23,18a8.9,8.9,0,0,0,2,.28A8.55,8.55,0,0,0,36,13.4c-.5-.51-1.26-1.13-1.78-1.63,0,.18.09.37.13.58a10.21,10.21,0,0,1-.33,4.88C34.73,17.49,35.45,17.73,36.23,18Z"/><path class="cls-1" d="M23.35,38.85a12.89,12.89,0,0,1-2,1.9,26.57,26.57,0,0,0,3.15,1.12,14.63,14.63,0,0,0,3.88-1.4A35.94,35.94,0,0,1,23.35,38.85Z"/><path class="cls-1" d="M31.63,41.06c-.75-.09-1.48-.21-2.2-.36A12.13,12.13,0,0,1,26,42.23a18.13,18.13,0,0,0,3.24.38,17,17,0,0,0,3.56-1.44C32.34,41.14,32,41.1,31.63,41.06Z"/><path class="cls-1" d="M35,35.85l-.58-.07a19.21,19.21,0,0,1-3.88,4.17,18.4,18.4,0,0,0,3.61.37,18.43,18.43,0,0,0,3.44-3.11c.22-.26.62-.72,1.09-1.35A14.12,14.12,0,0,1,35,35.85Z"/><path class="cls-1" d="M32.5,42.33l.73-.16a17.37,17.37,0,0,0,4.14-1.67,12.56,12.56,0,0,1-1.46.42,11.3,11.3,0,0,1-1.35.21A16,16,0,0,1,32.5,42.33Z"/><path class="cls-1" d="M26.15,0A26.15,26.15,0,1,0,52.3,26.15,26.15,26.15,0,0,0,26.15,0ZM43,28.11a20.13,20.13,0,0,1-2.54,6.65,22.55,22.55,0,0,1,2.86-.6,8.07,8.07,0,0,1-3.4,1.45,20.59,20.59,0,0,1-4.07,4.57,32.62,32.62,0,0,0,3.27-.7c.15-.08.24-.12.26-.09s0,0,0,.07l0,0s-.09.13-.27.25a14.85,14.85,0,0,1-3.58,2.14,16.06,16.06,0,0,1-3.32,1,14.29,14.29,0,0,1-1.43.18l-.17.06a17.86,17.86,0,0,1-10.5-.29,8.09,8.09,0,0,1-1.22-.36l-.43-.09.33,0h0a19.72,19.72,0,0,0,4.55-.29c-1-.29-1.86-.62-2.62-.93l-.42.26a8.16,8.16,0,0,1-1.86.9,16.8,16.8,0,0,1,1.75-1.39c-.82-.35-1.45-.66-1.81-.84a16.88,16.88,0,0,1,0,2.24,8.16,8.16,0,0,1-.47-2q0-.24-.06-.48c-.78-.4-1.46-.8-2-1.16a19,19,0,0,0,1.85,2.86l0,0,.16.2s.08.07.07.07l-.07-.07-.09-.07-.11-.13a6.51,6.51,0,0,1-1.07-.83,19,19,0,0,1-5.39-6.31A20.39,20.39,0,0,1,10,32.61a15.5,15.5,0,0,1-1.7-3.68,10,10,0,0,1-.51-4.48s.08.16.13.45a11.66,11.66,0,0,0,.52,1.55,10.45,10.45,0,0,0,1.27,2.12,19,19,0,0,1,.76-6.18,8.87,8.87,0,0,1-.48-1,7.67,7.67,0,0,1-.6-2.88c.06,0,.25,1,.69,2a9.55,9.55,0,0,0,.61,1.15A21.47,21.47,0,0,1,14.27,15l-.09-.22a7.42,7.42,0,0,1-.56-2.73c.06,0,.23,1,.65,1.91.05.13.16.35.32.66a14.49,14.49,0,0,1,3.87-3.31A18.6,18.6,0,0,1,22.5,9.71c-.09-.68,0-1.26.1-1.28s.23.46.51,1.13a17.93,17.93,0,0,1,7.09,0c.61.1,1.19.23,1.74.36a4.6,4.6,0,0,1,2.59.8,4.56,4.56,0,0,1,1.54.76c0,.05-.36-.06-1-.25a5.84,5.84,0,0,1,1.48,1.38c.42.37.86.78,1.29,1.22A19,19,0,0,1,41.13,18c.95-.2,1.63-.45,1.65-.4a5.64,5.64,0,0,1-1.49.69c.23.44.46.9.66,1.4a19,19,0,0,1,1.19,4.77,13.06,13.06,0,0,1-.08,3,10.34,10.34,0,0,1,2.1-.45A5.36,5.36,0,0,1,43,28.11Z"/><path class="cls-1" d="M38.06,28.66c-.1.28-.21.56-.33.85a28.79,28.79,0,0,1-2,4.19c-.19.31-.43.71-.72,1.17a16,16,0,0,0,4.28.07,18.09,18.09,0,0,0,2.76-6.56l-.34.08A11.88,11.88,0,0,1,38.06,28.66Z"/><path class="cls-1" d="M40.44,18.57l-.13,0a6.91,6.91,0,0,1-1.1.19,21.27,21.27,0,0,1-.83,9,13.85,13.85,0,0,0,3.12,0l.7-.1a14.16,14.16,0,0,0,0-3.77A15,15,0,0,0,40.44,18.57Z"/><path class="cls-1" d="M16.61,28.29c-.95-.65-1.65-1.16-2.17-1.56l-.12.42a14.23,14.23,0,0,0-.56,4.94c0,.09,0,.18,0,.27a43.17,43.17,0,0,0,4.48,2.94,37.81,37.81,0,0,1,1.57-4.87C18.71,29.74,17.68,29,16.61,28.29Z"/><path class="cls-1" d="M11.32,30.34c.37.35.95.85,1.69,1.44a10.43,10.43,0,0,1-.15-1.56A14.42,14.42,0,0,1,13.56,26c-.29-.25-.48-.43-.61-.56a15.65,15.65,0,0,1-1.79-2,17.81,17.81,0,0,0-.45,5.84c0,.13,0,.3.06.49C10.94,30,11.12,30.15,11.32,30.34Z"/><path class="cls-1" d="M18.81,36.67l0,0a20.38,20.38,0,0,0-.36,2.75c.6.31,1.14.56,1.57.76l.75.34h0a20.39,20.39,0,0,0,1.87-1.94A36.89,36.89,0,0,1,18.81,36.67Z"/><path class="cls-1" d="M11.1,31.16,11,31a17.65,17.65,0,0,0,1,3.16c.26.31.48.56.65.75a19.6,19.6,0,0,0,2,1.95,19.32,19.32,0,0,1-1.41-4A17.53,17.53,0,0,1,11.1,31.16Z"/><path class="cls-1" d="M13.19,24.6l.66.58c.28-.8.61-1.57.94-2.37a24.59,24.59,0,0,1,2.14-4.11h0a12.18,12.18,0,0,1-2.25-2.85,20,20,0,0,0-3.29,6.75A14.82,14.82,0,0,0,13.19,24.6Z"/><path class="cls-1" d="M17.14,17.87l.21.19a21.47,21.47,0,0,1,6.37-5.83,4.76,4.76,0,0,1-1-1.69,14.29,14.29,0,0,0-3.22,1.21A14.49,14.49,0,0,0,15,15.39,13.63,13.63,0,0,0,17.14,17.87Z"/><path class="cls-1" d="M13.92,33.43A15.94,15.94,0,0,0,15,36.84l.22.5a20.75,20.75,0,0,0,2.64,1.74,13,13,0,0,1,.23-2.85c-1.27-.77-2.38-1.55-3.55-2.38Z"/></g></g></svg>