<svg xmlns="http://www.w3.org/2000/svg" viewBox="0 0 52.74 52.74"><defs><style>.cls-1{fill:#f9f9fa;}</style></defs><title>publicben</title><g id="Layer_2" data-name="Layer 2"><g id="Layer_1-2" data-name="Layer 1"><path class="cls-1" d="M20.25,28.21a.71.71,0,0,0-.5.62V51.9q.67.17,1.35.31V28.84A.74.74,0,0,0,20.25,28.21Z"/><path class="cls-1" d="M34.06,23.13a1.11,1.11,0,0,1-.15-.54H18.22a1.17,1.17,0,0,1-.18.56,1.7,1.7,0,0,1-.6.56l17.3,0A1.68,1.68,0,0,1,34.06,23.13Z"/><path class="cls-1" d="M37,12.29a.36.36,0,0,0,0-.71H14.22a.36.36,0,0,0,0,.71Z"/><path class="cls-1" d="M10.86,16.11A5.13,5.13,0,0,0,10.08,22a4.72,4.72,0,0,0,3.36,2.62,4,4,0,0,0,3.86-1.56,3.6,3.6,0,0,0,.28-3.45,2.82,2.82,0,0,0-1.89-1.66c-.06,0-1.35-.2-1.75.6a1.36,1.36,0,0,0,.6,1.7c.21.09.51.13.6,0s-.52-.7-.37-1.06.5-.31.78-.28c.79.1,1.18,1.12,1.24,1.29a2.6,2.6,0,0,1-.18,2.12,2.92,2.92,0,0,1-2.39,1.24,3.93,3.93,0,0,1-3.4-2.25,4.34,4.34,0,0,1-.09-3.63,4.7,4.7,0,0,1,3.86-2.39,10,10,0,0,1,2.44.41c.71.14,2.74.54,4.37.74a27,27,0,0,0,3.86.18h1.6a27,27,0,0,0,3.86-.18c1.63-.2,3.66-.6,4.37-.74a10,10,0,0,1,2.44-.41,4.7,4.7,0,0,1,3.86,2.39,4.34,4.34,0,0,1-.09,3.63,3.93,3.93,0,0,1-3.4,2.25,2.92,2.92,0,0,1-2.39-1.24,2.6,2.6,0,0,1-.18-2.12c.06-.17.46-1.19,1.24-1.29.29,0,.69,0,.78.28s-.51.84-.37,1.06.39.09.6,0a1.36,1.36,0,0,0,.6-1.7c-.4-.8-1.69-.61-1.75-.6a2.82,2.82,0,0,0-1.89,1.66,3.6,3.6,0,0,0,.28,3.45,4,4,0,0,0,3.86,1.56A4.72,4.72,0,0,0,42,22a5.13,5.13,0,0,0-.78-5.89,5.7,5.7,0,0,0-2.16-1.47c-1.87-.72-3.43-.15-5.75.32a29.15,29.15,0,0,1-6.35.69c-.68,0-1.31,0-1.87,0A47.28,47.28,0,0,1,18.78,15c-3.69-.57-4.47-.81-5.75-.32A5.7,5.7,0,0,0,10.86,16.11Z"/><path class="cls-1" d="M22.92,28.21a.71.71,0,0,0-.5.62V52.44q.67.1,1.35.17V28.84A.74.74,0,0,0,22.92,28.21Z"/><path class="cls-1" d="M29.33,52.57V28.84a.74.74,0,0,0-.85-.62.71.71,0,0,0-.5.62V52.68Q28.67,52.64,29.33,52.57Z"/><path class="cls-1" d="M26.37,0A26.37,26.37,0,0,0,15.43,50.36V26.92h0c-1.11.22-3.59.78-5.56-.55-2.54-1.71-3.09-5.78-2.41-8.72a10.75,10.75,0,0,1,5.38-6.73l-1-2h28.1L39.11,11c.45.19,5.26,2.25,6.19,7.15.15.78.81,4.21-1.57,6.86a7.78,7.78,0,0,1-7.62,2.18l-.33-.05V51A26.37,26.37,0,0,0,26.37,0Z"/><path class="cls-1" d="M26.72,28.84a.74.74,0,0,0-.85-.62.71.71,0,0,0-.5.62V52.71l1,0h.35Z"/><path class="cls-1" d="M18.16,51.43V28.84a.74.74,0,0,0-.85-.62.71.71,0,0,0-.5.62V50.94Q17.48,51.2,18.16,51.43Z"/><path class="cls-1" d="M32,28.84a.74.74,0,0,0-.85-.62.71.71,0,0,0-.5.62V52.38q.68-.11,1.35-.26Z"/><path class="cls-1" d="M34.63,28.84a.74.74,0,0,0-.85-.62.71.71,0,0,0-.5.62v23q.68-.18,1.35-.41Z"/></g></g></svg>