<svg xmlns="http://www.w3.org/2000/svg" viewBox="0 0 53.62 53.29"><defs><style>.cls-1{fill:#f9f9fa;}</style></defs><title>religion</title><g id="Layer_2" data-name="Layer 2"><g id="Layer_1-2" data-name="Layer 1"><path class="cls-1" d="M26.81,0a26.81,26.81,0,0,0-4.19,53.29l.81-27.51a15,15,0,0,1,7.82,0l.81,27.32A26.81,26.81,0,0,0,26.81,0Zm3.42,22.45a3.5,3.5,0,0,1-2.4,1.66c-1.66.12-3.34-1.57-4-3-1-2.06.12-4,.7-5.09A23,23,0,0,0,27,5.29a93.34,93.34,0,0,1,4.13,12.66A5.34,5.34,0,0,1,30.23,22.45Z"/></g></g></svg>