<svg xmlns="http://www.w3.org/2000/svg" viewBox="0 0 52.99 52.99"><defs><style>.cls-1{fill:#f9f9fa;}</style></defs><title>socialservice</title><g id="Layer_2" data-name="Layer 2"><g id="Layer_1-2" data-name="Layer 1"><path class="cls-1" d="M7.18,25.21h0a1.75,1.75,0,0,0-1.29,1.32,1.83,1.83,0,0,0,1.51,2H25.18V29a18.93,18.93,0,0,1,.39-3.79Z"/><path class="cls-1" d="M45,23.31A12.28,12.28,0,0,0,37.9,17l-14-3.21a1.81,1.81,0,0,0-1.75.66,1.83,1.83,0,0,0,.06,2.1c.49.66,1.27.62,2.47.92a9.79,9.79,0,0,1,1.08.34l5.18,1.78a10.38,10.38,0,0,0-.1,1.55,4.07,4.07,0,0,0,.1,1.19,2.69,2.69,0,0,0,1.55,1.58,7.08,7.08,0,0,0,3.71.25c.84-.13,1.46.33,1.5.78s-.41.75-.46.78a10.08,10.08,0,0,1-3.66.09,9.91,9.91,0,0,1-1.7-.43,4.32,4.32,0,0,1-2.53-4.79h0l-3-.2-15.85-.18a1.93,1.93,0,0,0-.86,3.41H26c.17-.57.35-1.07.51-1.49a.87.87,0,0,1,.58-.32.91.91,0,0,1,.75.32,18.86,18.86,0,0,0,0,13.86.86.86,0,0,1-.69.34.85.85,0,0,1-.64-.34c-.15-.38-.31-.83-.47-1.34H15.51a1.75,1.75,0,0,0,.08,3.31h23a10.35,10.35,0,0,0,5.68-3.69C47.73,29.57,45.2,23.73,45,23.31Z"/><path class="cls-1" d="M25.18,29v.93H10.32a1.63,1.63,0,0,0,.1,3.21h15.2A19,19,0,0,1,25.18,29Z"/><path class="cls-1" d="M26.49,0A26.49,26.49,0,1,0,53,26.49,26.49,26.49,0,0,0,26.49,0Zm12,39.54H15.33a3.18,3.18,0,0,1-1.86-4.91H10.42a3.07,3.07,0,0,1-2.65-2.14,3.12,3.12,0,0,1,.47-2.57H7A3.23,3.23,0,0,1,7,23.6H8.1A3,3,0,0,1,10.42,19H23.3a3.63,3.63,0,0,1-3.13-2.51,3.44,3.44,0,0,1,1-3.58,3.59,3.59,0,0,1,3-.68l14,3.21a13.46,13.46,0,0,1,7.22,5c2.7,3.86,3.5,9.73.49,14.17A12.43,12.43,0,0,1,38.54,39.54Z"/></g></g></svg>