<svg xmlns="http://www.w3.org/2000/svg" viewBox="0 0 51.9 51.9"><defs><style>.cls-1{fill:#f9f9fa;}</style></defs><title>distance</title><g id="Layer_2" data-name="Layer 2"><g id="Layer_1-2" data-name="Layer 1"><rect class="cls-1" x="17.99" y="25.29" width="0.87" height="4.88" transform="translate(-14.21 21.15) rotate(-45)"/><rect class="cls-1" x="9.91" y="33.37" width="0.87" height="4.88" transform="translate(-22.29 17.8) rotate(-45)"/><rect class="cls-1" x="25.65" y="17.64" width="0.87" height="4.88" transform="translate(-6.56 24.32) rotate(-45)"/><path class="cls-1" d="M26,0a26,26,0,1,0,26,26A26,26,0,0,0,26,0ZM12.53,44.84,5.18,37.5l.24-.24,2,2,.22-.22-2-2,1.29-1.29,2,2,.22-.22-2-2,3.24-3.24,2,2,.22-.22-2-2,1.33-1.33,2,2,.22-.22-2-2,1.34-1.34,2,2,.22-.22-2-2L15,27.66l2,2,.22-.22-2-2,3.24-3.24,2,2,.22-.22-2-2L20,22.65l2,2,.22-.22-2-2,.91-.91,2,2,.22-.22-2-2L22.67,20l2,2,.22-.22-2-2,3.24-3.24,2,2,.22-.22-2-2L27.69,15l2,2,.22-.22-2-2,1.34-1.34,2,2,.22-.22-2-2,1.29-1.29,2,2,.22-.22-2-2,3.24-3.24,2,2,.22-.22-2-2,1.33-1.33,2,2L38,8.71l-2-2,1.39-1.39,7.35,7.35Z"/><rect class="cls-1" x="33.73" y="9.56" width="0.87" height="4.88" transform="translate(1.52 27.67) rotate(-45)"/></g></g></svg>