<svg xmlns="http://www.w3.org/2000/svg" viewBox="0 0 52.42 52.42"><defs><style>.cls-1{fill:#fff;}</style></defs><title>minutes</title><g id="Layer_2" data-name="Layer 2"><g id="Layer_1-2" data-name="Layer 1"><path class="cls-1" d="M26.21,0A26.21,26.21,0,1,0,52.42,26.21,26.21,26.21,0,0,0,26.21,0Zm0,44.44A18.24,18.24,0,1,1,44.44,26.21,18.24,18.24,0,0,1,26.21,44.44Z"/><path class="cls-1" d="M26.3,10.21a15.9,15.9,0,1,0,15.9,15.9A15.9,15.9,0,0,0,26.3,10.21ZM36.58,19,38,18a.31.31,0,0,1,.44.08l.27.4a.31.31,0,0,1-.08.44l-1.47,1a.31.31,0,0,1-.44-.08l-.27-.4A.31.31,0,0,1,36.58,19Zm-5.21-4,.76-1.6a.31.31,0,0,1,.42-.15l.44.21a.31.31,0,0,1,.15.42l-.77,1.6a.31.31,0,0,1-.42.15l-.44-.21A.31.31,0,0,1,31.37,14.93ZM13.37,20l.23-.42a.31.31,0,0,1,.43-.12l1.55.85a.31.31,0,0,1,.12.43l-.23.42a.31.31,0,0,1-.43.12l-1.55-.85A.31.31,0,0,1,13.37,20Zm.1,7.23H11.7a.31.31,0,0,1-.31-.31v-.48a.31.31,0,0,1,.31-.31h1.77a.31.31,0,0,1,.31.31v.48A.31.31,0,0,1,13.47,27.22ZM16,32.8l-1.47,1a.31.31,0,0,1-.44-.08l-.27-.4a.31.31,0,0,1,.08-.44l1.47-1a.31.31,0,0,1,.44.08l.27.4A.31.31,0,0,1,16,32.8ZM18.69,14l.41-.25a.31.31,0,0,1,.43.11l.91,1.52a.31.31,0,0,1-.11.43l-.41.25a.31.31,0,0,1-.43-.11l-.91-1.52A.31.31,0,0,1,18.69,14ZM20.57,37.3l-.77,1.6a.31.31,0,0,1-.42.15L19,38.84a.31.31,0,0,1-.15-.42l.76-1.6a.31.31,0,0,1,.42-.15l.44.21A.31.31,0,0,1,20.57,37.3Zm6,3.1a.31.31,0,0,1-.31.31h-.48a.31.31,0,0,1-.31-.31V38.63a.31.31,0,0,1,.31-.31h.48a.31.31,0,0,1,.31.31Zm7.66-2.3-.4.27a.31.31,0,0,1-.44-.08l-1-1.47a.31.31,0,0,1,.08-.44l.4-.27a.31.31,0,0,1,.44.08l1,1.47A.31.31,0,0,1,34.28,38.1Zm-7.16-10A1.25,1.25,0,0,1,25,27.61,1.25,1.25,0,0,1,25,25.23V12.81a1.26,1.26,0,0,1,2.51,0V25.6L37,27.75a1.26,1.26,0,1,1-.56,2.45Zm11.94,4.53-.21.44a.31.31,0,0,1-.42.15l-1.6-.76A.31.31,0,0,1,36.7,32l.21-.44a.31.31,0,0,1,.42-.15l1.6.77A.31.31,0,0,1,39.07,32.62Zm1.9-5.4H39.2a.31.31,0,0,1-.31-.31v-.48a.31.31,0,0,1,.31-.31H41a.31.31,0,0,1,.31.31v.48A.31.31,0,0,1,41,27.22Z"/></g></g></svg>