<svg xmlns="http://www.w3.org/2000/svg" viewBox="0 0 52.4 52.4"><defs><style>.cls-1{fill:#f9f9fa;}</style></defs><title>steps</title><g id="Layer_2" data-name="Layer 2"><g id="Layer_1-2" data-name="Layer 1"><path class="cls-1" d="M26.2,0A26.2,26.2,0,1,0,52.4,26.2,26.2,26.2,0,0,0,26.2,0ZM14.39,18.19c-.47-1.7-2.27-8.24.55-11.75A4.23,4.23,0,0,1,16.82,5a5.07,5.07,0,0,1,4,.63c3.27,1.94,4.61,7.46,3.37,10.89a17,17,0,0,0-1,3.32,15.43,15.43,0,0,0-.25,3.26l-5.88,1.33A26,26,0,0,1,14.39,18.19ZM24.58,32.77A3.59,3.59,0,0,1,22,34.42c-1.92,0-4-2.8-4.39-7.13l5.72-1.8C25.43,27.9,25.85,30.88,24.58,32.77ZM31,48.91a3.59,3.59,0,0,1-2.59-1.65c-1.27-1.89-.86-4.87,1.25-7.29l5.72,1.8C35,46.11,33,48.88,31,48.91Zm7.6-16.22A26,26,0,0,1,36,39l-5.88-1.33a15.43,15.43,0,0,0-.25-3.26,17,17,0,0,0-1-3.32c-1.24-3.43.1-9,3.37-10.89a5.07,5.07,0,0,1,4-.63,4.23,4.23,0,0,1,1.88,1.41C40.9,24.45,39.1,31,38.63,32.68Z"/></g></g></svg>