<svg xmlns="http://www.w3.org/2000/svg" viewBox="0 0 133.74 53.63"><defs><style>.cls-1{fill:none;stroke:#fff;stroke-miterlimit:10;}</style></defs><title>mo</title><g id="Layer_2" data-name="Layer 2"><g id="Layer_1-2" data-name="Layer 1"><path class="cls-1" d="M1,15.27C1,10.07.85,5.8.54,1.64h8L9,9.76h.31C12.08,5,16.76.5,25.08.5A14.88,14.88,0,0,1,39.33,10.59h.21A20.74,20.74,0,0,1,45.16,4,17.18,17.18,0,0,1,56.28.5c6.66,0,16.54,4.37,16.54,21.84V52H63.88V23.48C63.88,13.81,60.34,8,53,8c-5.2,0-9.26,3.85-10.82,8.32a15.07,15.07,0,0,0-.73,4.58V52H32.47V21.82C32.47,13.81,28.93,8,22,8c-5.72,0-9.88,4.58-11.34,9.15a12.61,12.61,0,0,0-.73,4.47V52H1Z"/><path class="cls-1" d="M133.24,26.4c0,18.62-12.9,26.73-25.06,26.73-13.62,0-24.13-10-24.13-25.9,0-16.85,11-26.73,25-26.73C123.47.5,133.24,11,133.24,26.4Zm-39.94.52c0,11,6.34,19.35,15.29,19.35,8.74,0,15.29-8.22,15.29-19.55,0-8.53-4.26-19.35-15.08-19.35S93.31,17.35,93.31,26.92Z"/></g></g></svg>