<svg xmlns="http://www.w3.org/2000/svg" viewBox="0 0 105.7 105.7"><title>motifLogo</title><g id="Layer_2" data-name="Layer 2"><g id="Layer_1-2" data-name="Layer 1"><path d="M93.7,0H12A12,12,0,0,0,0,12V93.7a12,12,0,0,0,12,12H93.7a12,12,0,0,0,12-12V12A12,12,0,0,0,93.7,0ZM40.4,20.83a14.8,14.8,0,0,0-6.07-1.14c-8.13,0-10.2,6.86-10.2,14.56v2.7H36.82v7H24.13V87.29H14.69V43.92H7.32v-7h7.38V34.56c0-7.07,1.63-13.52,6.07-17.58a18.72,18.72,0,0,1,12.8-4.68,23,23,0,0,1,8.13,1.46ZM58.77,87.29H49.58V36.95h9.19ZM54.38,28.42c-3.65,0-6-2.5-5.85-5.62a5.44,5.44,0,0,1,5.64-5.72,5.59,5.59,0,0,1,5.74,5.72A5.45,5.45,0,0,1,54.38,28.42Zm44.68,15.5H91.23V71.37c0,5.93-.94,10.4-3.55,13.11C85.49,87,82,88.33,77.76,88.33a22.55,22.55,0,0,1-8.14-1.25L70,80.22a20.53,20.53,0,0,0,5.32.62c5.12,0,6.89-3.54,6.89-9.78V43.92H69.1v-7H82.25V22.49l9,2.39V36.95h7.83Z"/></g></g></svg>