<svg xmlns="http://www.w3.org/2000/svg" viewBox="0 0 91.4 76.03"><defs><style>.cls-1{fill:#fff;}</style></defs><title>tif</title><g id="Layer_2" data-name="Layer 2"><g id="Layer_1-2" data-name="Layer 1"><path class="cls-1" d="M74.65,75V31.62H62v-7H74.65v-2.7c0-7.7-2.05-14.56-10.16-14.56a14.69,14.69,0,0,0-6.05,1.14l-1.3-7.07A22.82,22.82,0,0,1,65.25,0,18.61,18.61,0,0,1,78,4.68c4.43,4.06,6.05,10.5,6.05,17.58v2.39H91.4v7H84.05V75Z"/><path class="cls-1" d="M16.74,10.19V24.65h13.1v7H16.74V58.76c0,6.24,1.77,9.78,6.86,9.78a20.38,20.38,0,0,0,5.3-.62l.42,6.86A22.39,22.39,0,0,1,21.22,76c-4.26,0-7.7-1.35-9.88-3.85C8.74,69.47,7.8,65,7.8,59.07V31.62H0v-7H7.8V12.58Z"/><path class="cls-1" d="M50.34,10.5c.1,3.12-2.18,5.62-5.82,5.62A5.44,5.44,0,0,1,39,10.5a5.58,5.58,0,0,1,5.72-5.72A5.43,5.43,0,0,1,50.34,10.5ZM40.14,75V24.65H49.3V75Z"/></g></g></svg>